<?xml version="1.0" standalone="no"?>
<!DOCTYPE svg PUBLIC "-//W3C//DTD SVG 20010904//EN"
 "http://www.w3.org/TR/2001/REC-SVG-20010904/DTD/svg10.dtd">
<svg version="1.0" xmlns="http://www.w3.org/2000/svg"
 width="512.000000pt" height="512.000000pt" viewBox="0 0 512.000000 512.000000"
 preserveAspectRatio="xMidYMid meet">
<metadata>
Created by potrace 1.14, written by Peter Selinger 2001-2017
</metadata>
<g transform="translate(0.000000,512.000000) scale(0.100000,-0.100000)"
fill="#000000" stroke="none">
<path d="M1607 4962 c-26 -9 -63 -32 -82 -51 -30 -29 -334 -542 -349 -588 -5
-17 -24 -18 -328 -15 -382 4 -405 1 -478 -65 -27 -24 -50 -48 -50 -53 0 -4
-18 -38 -41 -75 -22 -37 -49 -82 -58 -99 -10 -17 -53 -91 -95 -164 -117 -202
-129 -232 -122 -305 4 -48 16 -79 57 -151 60 -105 72 -117 117 -114 31 2 35
-2 70 -62 36 -62 37 -66 20 -82 -29 -29 -21 -68 33 -158 38 -65 48 -89 40
-100 -6 -8 -49 -82 -97 -165 -48 -82 -108 -186 -134 -230 -92 -155 -105 -185
-106 -250 -1 -35 6 -75 15 -96 44 -101 310 -547 348 -584 69 -69 88 -72 468
-71 l332 1 35 -65 c82 -153 292 -507 314 -531 14 -14 46 -36 72 -50 47 -23 49
-23 395 -24 191 0 347 -3 347 -7 0 -4 18 -37 40 -73 22 -36 40 -68 40 -70 0
-3 17 -34 38 -68 21 -35 42 -70 46 -77 4 -8 12 -24 19 -35 7 -11 36 -63 66
-115 74 -130 105 -167 165 -197 l51 -26 325 0 c401 0 408 1 477 71 31 31 327
527 348 582 5 13 52 15 353 16 342 0 348 0 391 23 54 28 81 53 117 111 73 116
84 160 48 200 -11 13 -8 25 24 78 27 46 42 62 57 61 61 -4 82 14 140 128 35
67 40 86 40 143 0 78 6 67 -193 410 -157 272 -159 275 -242 313 -43 20 -62 21
-386 21 l-342 1 -23 45 c-13 25 -33 61 -45 80 -11 19 -32 55 -46 80 -14 25
-71 122 -126 216 l-101 172 85 141 c46 78 84 143 84 145 0 2 33 60 73 128 96
162 111 202 104 278 -4 48 -15 77 -58 152 -66 114 -88 137 -132 132 -30 -4
-34 -1 -68 59 -35 63 -35 64 -17 87 10 12 18 32 18 43 0 31 -77 158 -116 191
-64 53 -81 55 -449 56 l-340 1 -160 281 c-96 168 -175 296 -198 318 -66 66
-96 70 -461 70 -277 -1 -328 -3 -369 -18z"/>
</g>
</svg>
